<?xml version="1.0" encoding="iso-8859-1"?>
<!-- Generator: Adobe Illustrator 13.0.2, SVG Export Plug-In . SVG Version: 6.00 Build 14948)  -->
<!DOCTYPE svg PUBLIC "-//W3C//DTD SVG 1.1//EN" "http://www.w3.org/Graphics/SVG/1.1/DTD/svg11.dtd">
<svg version="1.1" id="Ebene_1" xmlns="http://www.w3.org/2000/svg" xmlns:xlink="http://www.w3.org/1999/xlink" x="0px" y="0px"
	 width="800px" height="300px" viewBox="-30 -50 800 300"
	 xml:space="preserve">
<rect x="39.553" y="173.896" style="fill:#F7B234;" width="129.175" height="1.004"/>
<path style="fill:#AAAAAA;" d="M552.24,174.9c30.142,0,54.574,24.433,54.574,54.572h20.025c0-30.138,24.44-54.572,54.575-54.572
	H552.24z"/>
<rect x="552.24" y="173.896" style="fill:#F7B234;" width="129.173" height="1.004"/>
<path style="fill:#AAAAAA;" d="M39.553,174.9c30.142,0,54.575,24.433,54.575,54.572h20.027c0-30.138,24.437-54.572,54.575-54.572
	H39.553z"/>
<polygon style="fill:#009730;" points="732.982,153.803 731.293,155.493 732.357,157.998 730.979,159.633 731.469,162.531 
	732.357,164.998 731.667,168.39 732.982,170.894 732.982,173.896 0,173.896 0,171.647 1.625,170.273 1.431,167.726 2.754,165.387 
	0.877,160.313 1.567,156.562 0,155.125 0,151.868 732.982,151.868 "/>
<g>
	<path style="fill:#777777;" d="M606.809,239.985V115.821c-0.025-16.454-13.584-30.018-30.042-30.041l0,0H144.194
		c-16.454,0.023-30.016,13.581-30.043,30.041l0,0v129.172l-20.027-5.008V115.821c0.04-27.61,22.461-50.036,50.07-50.067l0,0h432.575
		c27.612,0.031,50.036,22.453,50.067,50.067l0,0l0.008,129.172"/>
</g>
<path style="fill:#FFCC99;" d="M446.934,0c-6.243,0-11.353,4.28-11.353,9.511c0,5.232-5.106,9.514-11.348,9.514H300.737
	c-6.243,0-11.35-4.28-11.35-9.514c0-5.231-5.106-9.511-11.353-9.511h-68.418c-6.245,0-11.353,5.106-11.353,11.352v125.492
	c0,6.244,5.107,11.352,11.353,11.352h68.416c6.246,0,11.353-4.278,11.353-9.513s5.106-9.513,11.35-9.513h123.49
	c6.243,0,11.352,4.278,11.352,9.513s5.117,9.517,11.36,9.517h68.416c6.248,0,11.352-5.104,11.352-11.352V11.352
	C526.705,5.108,521.602,0,515.354,0H446.934z"/>
<line style="fill:none;stroke:#FCE90A;stroke-width:40;" x1="249.672" y1="0" x2="249.672" y2="148.199"/>
<line style="fill:none;stroke:#622280;stroke-width:40;" x1="324.884" y1="19.025" x2="324.884" y2="129.172"/>
<line style="fill:none;stroke:#673A15;stroke-width:40;" x1="400.091" y1="19.025" x2="400.091" y2="129.172"/>
<line style="fill:none;stroke:#CCCCCC;stroke-width:40;" x1="475.301" y1="0" x2="475.301" y2="148.199"/>
</svg>
